<svg xmlns="http://www.w3.org/2000/svg" width="32" height="32" version="1" id="camera"><path fill="#f37a5d" fill-rule="evenodd" d="M32 16c0 8.824-7.176 16-16.053 16S0 24.824 0 16 7.123 0 16 0c8.877 0 16 7.176 16 16z" clip-rule="evenodd"></path><path fill="#f35c4b" d="M17.951 31.799c.41-.051.836-.044 1.235-.125a16.04 16.04 0 0 0 8.117-4.365 16.1 16.1 0 0 0 3.437-5.086c.406-.957.72-1.962.934-3.002.084-.41.077-.846.129-1.266l-7.875-7.875a1.429 1.429 0 0 0-1.018-.416H9.09a1.42 1.42 0 0 0-1.434 1.434v9.804c0 .402.158.76.416 1.018l9.88 9.879z"></path><path fill="#fff" d="M9.09 9.664a1.42 1.42 0 0 0-1.433 1.433v9.806c0 .802.63 1.433 1.434 1.433h13.818a1.42 1.42 0 0 0 1.434-1.433v-9.806a1.42 1.42 0 0 0-1.434-1.433H9.091zm5.505 3.498c.058 0 .058 0 .115.057l4.014 2.523c.057 0 .057.057.057.057.115.115.057.344-.057.459l-4.014 2.58c-.172.115-.402-.057-.402-.286v-5.104c0-.172.172-.286.287-.286z"></path></svg>