<svg xmlns="http://www.w3.org/2000/svg" width="24" height="24" fill="none" viewBox="0 0 24 24" id="comment-line"><path fill="#5E94FF" d="M12 2.25C17.3848 2.25 21.75 6.61522 21.75 12V21C21.75 21.4142 21.4142 21.75 21 21.75H12C6.61522 21.75 2.25 17.3848 2.25 12C2.25 6.61522 6.61522 2.25 12 2.25Z"></path><path fill="#5485E5" fill-rule="evenodd" d="M12 2.25C6.61522 2.25 2.25 6.61522 2.25 12C2.25 17.3848 6.61522 21.75 12 21.75V2.25Z" clip-rule="evenodd"></path><path fill="#ECEFF1" fill-rule="evenodd" d="M7.25 7.5C7.25 7.08579 7.58579 6.75 8 6.75H16C16.4142 6.75 16.75 7.08579 16.75 7.5 16.75 7.91421 16.4142 8.25 16 8.25H8C7.58579 8.25 7.25 7.91421 7.25 7.5zM7.25 12C7.25 11.5858 7.58579 11.25 8 11.25H16C16.4142 11.25 16.75 11.5858 16.75 12 16.75 12.4142 16.4142 12.75 16 12.75H8C7.58579 12.75 7.25 12.4142 7.25 12zM7.25 16.5C7.25 16.0858 7.58579 15.75 8 15.75H14C14.4142 15.75 14.75 16.0858 14.75 16.5 14.75 16.9142 14.4142 17.25 14 17.25H8C7.58579 17.25 7.25 16.9142 7.25 16.5z" clip-rule="evenodd"></path><path fill="#CFD8DC" fill-rule="evenodd" d="M12 15.75V17.25H8C7.58579 17.25 7.25 16.9142 7.25 16.5C7.25 16.0858 7.58579 15.75 8 15.75H12ZM12 11.25V12.75H8C7.58579 12.75 7.25 12.4142 7.25 12C7.25 11.5858 7.58579 11.25 8 11.25H12ZM12 6.75V8.25H8C7.58579 8.25 7.25 7.91421 7.25 7.5C7.25 7.08579 7.58579 6.75 8 6.75H12Z" clip-rule="evenodd"></path></svg>